<svg xmlns="http://www.w3.org/2000/svg" width="480" height="88" viewBox="0 0 480 88">
  <rect width="480" height="88" rx="18" fill="#040d12"/>
  <rect x="8" y="8" width="72" height="72" rx="17" fill="#050e14" stroke="rgba(14,165,233,0.22)" stroke-width="1"/>
  <g transform="translate(22,10)">
    <path d="M22 3 C22 3 7 18 7 28 C7 36.5 13.8 43 22 43 C30.2 43 37 36.5 37 28 C37 18 22 3 22 3Z"
      fill="#0EA5E9" opacity=".12" stroke="white" stroke-width="1.5" stroke-linejoin="round"/>
    <path d="M13 27 C13 27 12 33 18 37" fill="none" stroke="#0EA5E9" stroke-width="1.4" stroke-linecap="round" opacity=".7"/>
    <ellipse cx="22" cy="43" rx="8" ry="2.6" fill="none" stroke="#0EA5E9" stroke-width="1.2" opacity=".55"/>
    <ellipse cx="22" cy="43" rx="14" ry="4.4" fill="none" stroke="#0EA5E9" stroke-width="0.9" opacity=".25"/>
  </g>
  <text x="100" y="44" font-family="Arial Black, Arial, sans-serif" font-weight="900" font-size="36" fill="#ffffff" letter-spacing="-1.5">WashFlow</text>
  <text x="100" y="62" font-family="Courier New, monospace" font-size="11" fill="rgba(14,165,233,0.65)" letter-spacing="4">CARWASH CRM</text>
  <!-- powered by badge -->
  <rect x="100" y="68" width="162" height="16" rx="8" fill="#0a0916" stroke="rgba(123,110,246,0.22)" stroke-width="1"/>
  <text x="110" y="79" font-family="Courier New, monospace" font-size="8" fill="rgba(255,255,255,0.3)" letter-spacing="0.3">powered by</text>
  <text x="167" y="79" font-family="Arial Black, Arial, sans-serif" font-size="8" fill="#7B6EF6" font-weight="900">flux-lab.dev</text>
</svg>